<svg xmlns="http://www.w3.org/2000/svg" width="200" height="280" viewBox="0 0 200 280" fill="none">
  <!-- Background -->
  <rect width="200" height="280" rx="8" fill="#4169E1" stroke="#0000CD" stroke-width="2"/>
  
  <!-- Book spine -->
  <rect x="10" y="20" width="180" height="240" rx="4" fill="#87CEEB" stroke="#4169E1" stroke-width="1"/>
  
  <!-- Brain illustration -->
  <g transform="translate(70, 80)">
    <!-- Brain outline -->
    <path d="M 30 20 Q 10 10 15 30 Q 5 40 20 45 Q 25 55 40 50 Q 55 55 50 40 Q 60 30 45 25 Q 50 10 30 20 Z" 
          fill="#FFB6C1" stroke="#FF69B4" stroke-width="2"/>
    
    <!-- Brain divisions -->
    <path d="M 30 20 Q 35 30 40 50" stroke="#FF1493" stroke-width="1" fill="none"/>
    <path d="M 20 35 Q 30 40 45 35" stroke="#FF1493" stroke-width="1" fill="none"/>
    
    <!-- Neural connections -->
    <circle cx="25" cy="30" r="2" fill="#FF1493"/>
    <circle cx="35" cy="25" r="2" fill="#FF1493"/>
    <circle cx="40" cy="35" r="2" fill="#FF1493"/>
    <circle cx="30" cy="45" r="2" fill="#FF1493"/>
    
    <!-- Connection lines -->
    <line x1="25" y1="30" x2="35" y2="25" stroke="#FF1493" stroke-width="1"/>
    <line x1="35" y1="25" x2="40" y2="35" stroke="#FF1493" stroke-width="1"/>
    <line x1="40" y1="35" x2="30" y2="45" stroke="#FF1493" stroke-width="1"/>
  </g>
  
  <!-- Psychology symbol (Psi) -->
  <g transform="translate(85, 160)">
    <path d="M 15 0 Q 5 10 15 20 Q 25 10 15 0" fill="none" stroke="#000080" stroke-width="3"/>
    <line x1="15" y1="20" x2="15" y2="35" stroke="#000080" stroke-width="3"/>
    <line x1="10" y1="30" x2="20" y2="30" stroke="#000080" stroke-width="3"/>
  </g>
  
  <!-- Title -->
  <text x="100" y="220" text-anchor="middle" font-family="serif" font-size="14" font-weight="bold" fill="#000080">
    Psicología
  </text>
  <text x="100" y="240" text-anchor="middle" font-family="serif" font-size="10" fill="#4169E1">
    Mente Humana
  </text>
</svg>